<svg width="22" height="23" viewBox="0 0 22 23" fill="none" xmlns="http://www.w3.org/2000/svg">
<path d="M11 22.742C10.7348 22.742 10.4804 22.6331 10.2929 22.4393C10.1054 22.2454 10 21.9825 10 21.7083V18.6071H6C5.46957 18.6071 4.96086 18.3893 4.58579 18.0016C4.21071 17.6138 4 17.088 4 16.5397V6.20237C4 5.05493 4.9 4.13491 6 4.13491H20C20.5304 4.13491 21.0391 4.35274 21.4142 4.74046C21.7893 5.12818 22 5.65405 22 6.20237V16.5397C22 17.088 21.7893 17.6138 21.4142 18.0016C21.0391 18.3893 20.5304 18.6071 20 18.6071H15.9L12.2 22.4422C12 22.6387 11.75 22.742 11.5 22.742H11ZM12 16.5397V19.7235L15.08 16.5397H20V6.20237H6V16.5397H12ZM2 14.4722H0V2.06746C0 1.51913 0.210714 0.993268 0.585786 0.605544C0.960859 0.217821 1.46957 0 2 0H18V2.06746H2V14.4722Z" fill="#004E8C"/>
</svg>
