<svg width="20" height="20" viewBox="0 0 20 20" fill="none" xmlns="http://www.w3.org/2000/svg">
<path d="M14.0414 12.1442L13.9682 12.0708H13.8645H13.1524L13.1039 12.024C14.0592 10.8335 14.6291 9.32422 14.6291 7.68954C14.6291 3.85678 11.5223 0.75 7.68954 0.75C3.85678 0.75 0.75 3.85678 0.75 7.68954C0.75 11.5223 3.85678 14.6291 7.68954 14.6291C9.32422 14.6291 10.8335 14.0592 12.024 13.1039L12.0708 13.1524V13.8645V13.9682L12.1442 14.0414L17.29 19.177L17.4667 19.3534L17.6433 19.1768L19.1768 17.6433L19.3534 17.4667L19.177 17.29L14.0414 12.1442ZM7.68954 12.0708C5.265 12.0708 3.30832 10.1141 3.30832 7.68954C3.30832 5.265 5.265 3.30832 7.68954 3.30832C10.1141 3.30832 12.0708 5.265 12.0708 7.68954C12.0708 10.1141 10.1141 12.0708 7.68954 12.0708Z" fill="#3A3A3A" stroke="#3A3A3A" stroke-width="0.5"/>
</svg>
