<svg width="25" height="27" viewBox="0 0 25 27" fill="none" xmlns="http://www.w3.org/2000/svg">
<path d="M12.4875 0.746826C5.5875 0.746826 0 6.53571 0 13.6684C0 20.8012 5.5875 26.59 12.4875 26.59C19.4 26.59 25 20.8012 25 13.6684C25 6.53571 19.4 0.746826 12.4875 0.746826ZM8.125 8.49979C9.1625 8.49979 10 9.36554 10 10.438C10 11.5105 9.1625 12.3763 8.125 12.3763C7.0875 12.3763 6.25 11.5105 6.25 10.438C6.25 9.36554 7.0875 8.49979 8.125 8.49979ZM12.5 21.4214C9.65 21.4214 7.225 19.2764 6.25 16.2528H18.75C17.775 19.2764 15.35 21.4214 12.5 21.4214ZM16.875 12.3763C15.8375 12.3763 15 11.5105 15 10.438C15 9.36554 15.8375 8.49979 16.875 8.49979C17.9125 8.49979 18.75 9.36554 18.75 10.438C18.75 11.5105 17.9125 12.3763 16.875 12.3763Z" fill="#CACACA"/>
</svg>
