<svg width="16" height="16" viewBox="0 0 16 16" fill="none" xmlns="http://www.w3.org/2000/svg">
<path d="M8 0C6.94943 0 5.90914 0.19854 4.93853 0.584283C3.96793 0.970026 3.08601 1.53542 2.34315 2.24818C0.842855 3.68766 0 5.64002 0 7.67576C0 9.7115 0.842855 11.6639 2.34315 13.1033C3.08601 13.8161 3.96793 14.3815 4.93853 14.7672C5.90914 15.153 6.94943 15.3515 8 15.3515C10.1217 15.3515 12.1566 14.5428 13.6569 13.1033C15.1571 11.6639 16 9.7115 16 7.67576C16 6.66777 15.7931 5.66964 15.391 4.73838C14.989 3.80711 14.3997 2.96094 13.6569 2.24818C12.914 1.53542 12.0321 0.970026 11.0615 0.584283C10.0909 0.19854 9.05058 0 8 0ZM11.36 10.8996L7.2 8.44334V3.83788H8.4V7.82928L12 9.90173L11.36 10.8996Z" fill="#130063"/>
</svg>
